<svg xmlns="http://www.w3.org/2000/svg" width="0" height="0"><symbol id="chevron" fill="none" viewBox="0 0 24 24"><path stroke="currentColor" stroke-linecap="round" stroke-linejoin="round" stroke-width="3" d="M23 18 12 6 1 18"/></symbol><symbol id="close" fill="none" viewBox="0 0 24 24"><path stroke="currentColor" stroke-linecap="round" stroke-linejoin="round" stroke-width="4" d="M22 2 2 22M2 2l20 20"/></symbol><symbol id="hex-minus" fill="none" viewBox="0 0 24 24"><path stroke="currentColor" stroke-linecap="round" stroke-linejoin="round" stroke-width="2" d="M22 16.4V7.6a2.2 2.2 0 0 0-.298-1.1 2.2 2.2 0 0 0-.813-.804L13.11 1.295a2.24 2.24 0 0 0-2.222 0l-7.778 4.4a2.2 2.2 0 0 0-.813.805A2.2 2.2 0 0 0 2 7.6v8.8c0 .387.103.766.298 1.1s.476.611.813.804l7.778 4.401a2.24 2.24 0 0 0 2.222 0l7.778-4.4a2.2 2.2 0 0 0 .813-.805A2.2 2.2 0 0 0 22 16.4M7 12h10"/></symbol><symbol id="hex-none" fill="none" viewBox="0 0 24 24"><path stroke="currentColor" stroke-linecap="round" stroke-linejoin="round" stroke-width="2" d="M22 16.4V7.6a2.2 2.2 0 0 0-.298-1.1 2.2 2.2 0 0 0-.813-.804L13.11 1.295a2.24 2.24 0 0 0-2.222 0l-7.778 4.4a2.2 2.2 0 0 0-.813.805A2.2 2.2 0 0 0 2 7.6v8.8c0 .387.103.766.298 1.1s.476.611.813.804l7.778 4.401a2.24 2.24 0 0 0 2.222 0l7.778-4.4a2.2 2.2 0 0 0 .813-.805A2.2 2.2 0 0 0 22 16.4"/><path stroke="currentColor" stroke-linecap="round" stroke-linejoin="round" stroke-width="2" d="M12 17a5 5 0 1 0 0-10 5 5 0 0 0 0 10"/></symbol><symbol id="hex-plus" fill="none" viewBox="0 0 24 24"><path stroke="currentColor" stroke-linecap="round" stroke-linejoin="round" stroke-width="2" d="M22 16.4V7.6a2.2 2.2 0 0 0-.298-1.1 2.2 2.2 0 0 0-.813-.804L13.11 1.295a2.24 2.24 0 0 0-2.222 0l-7.778 4.4a2.2 2.2 0 0 0-.813.805A2.2 2.2 0 0 0 2 7.6v8.8c0 .387.103.766.298 1.1s.476.611.813.804l7.778 4.401a2.24 2.24 0 0 0 2.222 0l7.778-4.4a2.2 2.2 0 0 0 .813-.805A2.2 2.2 0 0 0 22 16.4M12 7v10m-5-5h10"/></symbol><symbol id="info" fill="none" viewBox="0 0 24 24"><path stroke="currentColor" stroke-linecap="round" stroke-linejoin="round" stroke-width="2" d="M12 23c6.075 0 11-4.925 11-11S18.075 1 12 1 1 5.925 1 12s4.925 11 11 11"/><path stroke="currentColor" stroke-linecap="round" stroke-linejoin="round" stroke-width="3" d="M12 17v-5m0-5h.01"/></symbol><symbol id="menu" fill="none" viewBox="0 0 24 24"><path stroke="currentColor" stroke-linecap="round" stroke-width="2.5" d="M3 12h18M2 20c0 1 3 1 4 1h12c1 0 4-.002 4-1m0-16.002C22 3 19 3 18 3H6c-1 0-4 0-4 .998"/></symbol><symbol id="moon" fill="none" viewBox="0 0 24 24"><path stroke="currentColor" stroke-linecap="round" stroke-linejoin="round" stroke-width="2" d="M23 12.586A11.008 11.008 0 1 1 11.412 1c.495-.027.755.563.492.982a7.338 7.338 0 0 0 10.112 10.112c.42-.263 1.009-.005.982.49"/></symbol><symbol xmlns="http://www.w3.org/2000/svg" id="sidebar" fill="none" viewBox="0 0 24 24"><path stroke="currentColor" stroke-width="2" d="M18 23H6a5 5 0 0 1-5-5V6a5 5 0 0 1 5-5h12a5 5 0 0 1 5 5v12a5 5 0 0 1-5 5Z"/><path stroke="currentColor" stroke-linecap="round" stroke-linejoin="round" stroke-width="2" d="M16 1v22m-5-6-5-5 5-5"/></symbol><symbol id="sun" fill="none" stroke="currentColor" stroke-linecap="round" stroke-linejoin="round" stroke-width="2.5" viewBox="0 0 24 24"><path d="M12 16a4 4 0 1 0 0-8 4 4 0 0 0 0 8m0-15v2m0 18v2M4 4l2 2m12 12 2 2M1 12h2m18 0h2M6 18l-2 2M20 4l-2 2"/></symbol><filter id="sorto-filter" width="1024.79" height="1024.79" x="0" y="0" color-interpolation-filters="sRGB" filterUnits="userSpaceOnUse"><feFlood flood-opacity="0" result="BackgroundImageFix"/><feColorMatrix in="SourceAlpha" result="hardAlpha" values="0 0 0 0 0 0 0 0 0 0 0 0 0 0 0 0 0 0 127 0"/><feOffset/><feGaussianBlur stdDeviation="2.5"/><feComposite in2="hardAlpha" operator="out"/><feColorMatrix values="0 0 0 0 0.168627 0 0 0 0 0.498039 0 0 0 0 1 0 0 0 1 0"/><feBlend in2="BackgroundImageFix" result="effect1_dropShadow_5_17"/><feBlend in="SourceGraphic" in2="effect1_dropShadow_5_17" result="shape"/><feColorMatrix in="SourceAlpha" result="hardAlpha" values="0 0 0 0 0 0 0 0 0 0 0 0 0 0 0 0 0 0 127 0"/><feOffset/><feGaussianBlur stdDeviation="12.5"/><feComposite in2="hardAlpha" k2="-1" k3="1" operator="arithmetic"/><feColorMatrix values="0 0 0 0 0.168627 0 0 0 0 0.498039 0 0 0 0 1 0 0 0 1 0"/><feBlend in2="shape" result="effect2_innerShadow_5_17"/></filter><symbol id="sorto-logo-mark" fill="none" viewBox="0 0 1025 1025"><g filter="url(#sorto-filter)"><path stroke="#8ec5ff" stroke-width="72" d="M512.397 983.794c260.345 0 471.397-211.052 471.397-471.397S772.742 41 512.397 41 41 252.052 41 512.397c0 260.344 211.052 471.397 471.397 471.397Z"/></g><path fill="#2b7fff" d="M468.283 867.031c9.828 6.849 21.508 10.579 33.473 9.982 194.953-9.715 360.214-172.732 374.686-367.317 1.234-16.588-9.356-31.487-24.94-37.302-22.661-8.456-55.652-20.945-80.122-30.956-27.489-11.245-65.656-28.129-84.729-36.637a39.32 39.32 0 0 1-18.223-16.611L550.794 179.764c-4.072-7.213-12.192-11.116-20.165-8.869-21.479 6.053-62.81 22.21-78.51 59.532-21.627 51.413-19.283 130.058-19.283 130.058s-40.483-18.086-67.008-14.464c-31.845 4.35-49.979 18.289-69.818 43.575-25.254 32.185-26.925 54.963-39.118 92.596-12.896 39.802-18.817 105.47-18.817 105.47s-12.634 51.497 10.894 94.081c9.518 17.227 59.913 63.422 107.946 102.994 32.571 26.833 85.56 64.309 111.368 82.294"/><path stroke="#05d" stroke-linecap="round" stroke-opacity=".8" stroke-width="40" d="M426.054 745.337c28.733-4.189 45.146-10.091 69.968-25.157 30.357-18.424 44.327-32.786 63.91-64.681 33.656-54.812 48.701-102.059 26.742-162.514-18.386-50.617-96.065-98.933-96.065-98.933"/></symbol><!-- social-x and social-telegram are adapted from Tabler Icons (brand-x, brand-telegram), MIT License, Copyright (c) Paweł Kuna. --><symbol id="social-youtube" fill="none" viewBox="0 0 24 24"><path stroke="currentColor" stroke-linecap="round" stroke-linejoin="round" stroke-width="2" d="M1 9a5 5 0 0 1 5-5h12a5 5 0 0 1 5 5v6a5 5 0 0 1-5 5H6a5 5 0 0 1-5-5Z"/><path stroke="currentColor" stroke-linecap="round" stroke-linejoin="round" stroke-width="2" d="M10 8.5v7l6-3.5Z"/></symbol><symbol id="social-instagram" fill="none" viewBox="0 0 24 24"><path stroke="currentColor" stroke-linecap="round" stroke-linejoin="round" stroke-width="2" d="M1 7a6 6 0 0 1 6-6h10a6 6 0 0 1 6 6v10a6 6 0 0 1-6 6H7a6 6 0 0 1-6-6Z"/><path stroke="currentColor" stroke-linecap="round" stroke-linejoin="round" stroke-width="2" d="M12 17a5 5 0 1 0 0-10 5 5 0 0 0 0 10"/><path stroke="currentColor" stroke-linecap="round" stroke-width="3" d="M17.5 6.5h.01"/></symbol><symbol id="social-x" fill="none" viewBox="0 0 24 24"><path stroke="currentColor" stroke-linecap="round" stroke-linejoin="round" stroke-width="2" d="M1 1l16.133 22H23L6.867 1Z"/><path stroke="currentColor" stroke-linecap="round" stroke-linejoin="round" stroke-width="2" d="m1 23 9.306-9.306m3.383-3.383L23 1"/></symbol><symbol id="social-telegram" fill="none" viewBox="0 0 24 24"><path stroke="currentColor" stroke-linecap="round" stroke-linejoin="round" stroke-width="2" d="m15.667 9.556-4.889 4.888 7.333 7.334L23 2.222 1 10.778l4.889 2.444 2.444 7.334L12 15.667"/></symbol></svg>